<svg width="23" height="22" viewBox="0 0 23 22" fill="none" xmlns="http://www.w3.org/2000/svg">
<path d="M11.2292 21.9836C17.3439 21.9836 22.2654 17.0624 22.2216 10.9918C22.1778 4.9212 17.1854 0 11.0707 0C4.95597 0 0.0345154 4.9212 0.0782969 10.9918C0.122078 17.0624 5.11451 21.9836 11.2292 21.9836Z" fill="#06D6A0"/>
<path opacity="0.2" d="M20.3509 6.62547C20.1691 6.27963 19.5273 6.04221 18.4419 5.92079C17.8472 5.85357 16.7508 5.79394 16.0795 6.1387C13.0139 7.71718 10.5157 10.1966 8.39857 12.4927L7.22338 10.4069C7.14124 10.2605 6.94848 9.91903 5.25853 9.78135C4.66272 9.73365 3.59158 9.69353 3.09653 9.96673C2.74387 10.1619 2.62448 10.5457 2.81287 10.8796L5.75686 16.0974C5.88391 16.324 6.16538 16.5506 7.34933 16.684C7.51362 16.7024 7.73267 16.7241 7.978 16.7382C8.74357 16.7837 9.75557 16.7664 10.0907 16.3999C10.4521 16.0031 10.8201 15.5955 11.1761 15.1998C13.8167 12.2683 16.5471 9.23712 20.0595 7.4288C20.4275 7.24016 20.4856 6.88132 20.3509 6.62547Z" fill="black"/>
<path d="M19.7268 5.81613C19.5242 5.48223 18.8692 5.28383 17.7784 5.22746C17.1815 5.19602 16.083 5.20252 15.4335 5.58738C12.4709 7.34583 10.1293 9.97049 8.15673 12.3892L6.8545 10.3781C6.76359 10.2372 6.55002 9.90761 4.8546 9.87184C4.25769 9.85991 3.18545 9.88376 2.70793 10.1862C2.36731 10.4031 2.27203 10.7933 2.48012 11.1153L5.73736 16.1478C5.87864 16.3657 6.17326 16.5761 7.36269 16.6378C7.52807 16.6465 7.74821 16.6541 7.99354 16.6541C8.76021 16.6541 9.77002 16.5761 10.0811 16.189C10.4184 15.7716 10.7601 15.3423 11.0909 14.926C13.5475 11.8417 16.0873 8.65112 19.4826 6.63573C19.8407 6.42433 19.8769 6.06331 19.7268 5.81613Z" fill="white"/>
</svg>
